{"asset":{"version":"2.0","generator":"THREE.GLTFExporter"},"scenes":[{"nodes":[5]}],"scene":0,"nodes":[{"matrix":[1,0,0,0,0,1,0,0,0,0,1,0,-105,-65,0.2,1],"mesh":0},{"matrix":[1,0,0,0,0,1,0,0,0,0,1,0,-105,-65,0.30000000000000004,1],"mesh":1},{"matrix":[1,0,0,0,0,1,0,0,0,0,1,0,-105,-65,-0.1,1],"mesh":2},{"matrix":[1,0,0,0,0,1,0,0,0,0,1,0,0,0,0.2,1],"mesh":4},{"matrix":[-1,0,-1.2246467991473532e-16,0,0,1,0,0,1.2246467991473532e-16,0,-1,0,105,-65,-0.2,1],"mesh":3,"children":[3]},{"matrix":[0.952340758089748,0,-0.008749796517280976,0,0,0.9523809523809523,0,0,0.008749796517280976,0,0.952340758089748,0,0,0,0,1],"children":[0,1,2,4]}],"bufferViews":[{"buffer":0,"byteOffset":0,"byteLength":5112,"target":34962,"byteStride":12},{"buffer":0,"byteOffset":5112,"byteLength":5112,"target":34962,"byteStride":12},{"buffer":0,"byteOffset":10224,"byteLength":5112,"target":34962,"byteStride":12},{"buffer":0,"byteOffset":15336,"byteLength":3408,"target":34962,"byteStride":8},{"buffer":0,"byteOffset":18744,"byteLength":5112,"target":34962,"byteStride":12},{"buffer":0,"byteOffset":23856,"byteLength":5112,"target":34962,"byteStride":12},{"buffer":0,"byteOffset":28968,"byteLength":5112,"target":34962,"byteStride":12},{"buffer":0,"byteOffset":34080,"byteLength":3408,"target":34962,"byteStride":8},{"buffer":0,"byteOffset":37488,"byteLength":20592,"target":34962,"byteStride":12},{"buffer":0,"byteOffset":58080,"byteLength":20592,"target":34962,"byteStride":12},{"buffer":0,"byteOffset":78672,"byteLength":20592,"target":34962,"byteStride":12},{"buffer":0,"byteOffset":99264,"byteLength":13728,"target":34962,"byteStride":8},{"buffer":0,"byteOffset":112992,"byteLength":5112,"target":34962,"byteStride":12},{"buffer":0,"byteOffset":118104,"byteLength":5112,"target":34962,"byteStride":12},{"buffer":0,"byteOffset":123216,"byteLength":5112,"target":34962,"byteStride":12},{"buffer":0,"byteOffset":128328,"byteLength":3408,"target":34962,"byteStride":8},{"buffer":0,"byteOffset":131736,"byteLength":5112,"target":34962,"byteStride":12},{"buffer":0,"byteOffset":136848,"byteLength":5112,"target":34962,"byteStride":12},{"buffer":0,"byteOffset":141960,"byteLength":5112,"target":34962,"byteStride":12},{"buffer":0,"byteOffset":147072,"byteLength":3408,"target":34962,"byteStride":8}],"buffers":[{"byteLength":150480,"uri":"data:application/octet-stream;base64,"}],"accessors":[{"bufferView":0,"componentType":5126,"count":426,"max":[210,130,0],"min":[0,0,0],"type":"VEC3"},{"bufferView":1,"componentType":5126,"count":426,"max":[0,0,1],"min":[0,0,1],"type":"VEC3"},{"bufferView":2,"componentType":5126,"count":426,"max":[1,1,1],"min":[1,1,1],"type":"VEC3"},{"bufferView":3,"componentType":5126,"count":426,"max":[1,1],"min":[0,0],"type":"VEC2"},{"bufferView":4,"componentType":5126,"count":426,"max":[210,130,0],"min":[0,0,0],"type":"VEC3"},{"bufferView":5,"componentType":5126,"count":426,"max":[0,0,1],"min":[0,0,1],"type":"VEC3"},{"bufferView":6,"componentType":5126,"count":426,"max":[1,1,1],"min":[1,1,1],"type":"VEC3"},{"bufferView":7,"componentType":5126,"count":426,"max":[1,1],"min":[0,0],"type":"VEC2"},{"bufferView":8,"componentType":5126,"count":1716,"max":[210,130,0.20000000298023224],"min":[0,0,0],"type":"VEC3"},{"bufferView":9,"componentType":5126,"count":1716,"max":[1,1,1],"min":[-1,-1,-1],"type":"VEC3"},{"bufferView":10,"componentType":5126,"count":1716,"max":[1,1,1],"min":[1,1,1],"type":"VEC3"},{"bufferView":11,"componentType":5126,"count":1716,"max":[1.6139780282974243,1],"min":[0,0],"type":"VEC2"},{"bufferView":12,"componentType":5126,"count":426,"max":[210,130,0],"min":[0,0,0],"type":"VEC3"},{"bufferView":13,"componentType":5126,"count":426,"max":[0,0,1],"min":[0,0,1],"type":"VEC3"},{"bufferView":14,"componentType":5126,"count":426,"max":[1,1,1],"min":[1,1,1],"type":"VEC3"},{"bufferView":15,"componentType":5126,"count":426,"max":[1,1],"min":[0,0],"type":"VEC2"},{"bufferView":16,"componentType":5126,"count":426,"max":[210,130,0],"min":[0,0,0],"type":"VEC3"},{"bufferView":17,"componentType":5126,"count":426,"max":[0,0,1],"min":[0,0,1],"type":"VEC3"},{"bufferView":18,"componentType":5126,"count":426,"max":[1,1,1],"min":[1,1,1],"type":"VEC3"},{"bufferView":19,"componentType":5126,"count":426,"max":[1,1],"min":[0,0],"type":"VEC2"}],"materials":[{"pbrMetallicRoughness":{"metallicFactor":0.5,"roughnessFactor":0.5,"baseColorTexture":{"index":0}},"alphaMode":"MASK"},{"pbrMetallicRoughness":{"metallicFactor":0.5,"roughnessFactor":0.5,"baseColorTexture":{"index":1}},"alphaMode":"MASK"},{"pbrMetallicRoughness":{"metallicFactor":0.5,"roughnessFactor":0.5},"alphaMode":"MASK","doubleSided":true},{"pbrMetallicRoughness":{"metallicFactor":0.5,"roughnessFactor":0.5,"baseColorTexture":{"index":2}},"alphaMode":"MASK"},{"pbrMetallicRoughness":{"metallicFactor":0.5,"roughnessFactor":0.5,"baseColorTexture":{"index":3}},"alphaMode":"MASK"}],"textures":[{"sampler":0,"source":0},{"sampler":1,"source":1},{"sampler":2,"source":2},{"sampler":3,"source":3}],"samplers":[{"magFilter":9729,"minFilter":9987},{"magFilter":9729,"minFilter":9987},{"magFilter":9729,"minFilter":9987},{"magFilter":9729,"minFilter":9987}],"images":[{"mimeType":"image/png","uri":"data:image/png;base64,"},{"mimeType":"image/png","uri":"data:image/png;base64,"},{"mimeType":"image/png","uri":"data:image/png;base64,"},{"mimeType":"image/png","uri":"data:image/png;base64,"}],"meshes":[{"primitives":[{"mode":4,"attributes":{"POSITION":0,"NORMAL":1,"COLOR_0":2,"TEXCOORD_0":3},"material":0}]},{"primitives":[{"mode":4,"attributes":{"POSITION":4,"NORMAL":5,"COLOR_0":6,"TEXCOORD_0":7},"material":1}]},{"primitives":[{"mode":4,"attributes":{"POSITION":8,"NORMAL":9,"COLOR_0":10,"TEXCOORD_0":11},"material":2}]},{"primitives":[{"mode":4,"attributes":{"POSITION":12,"NORMAL":13,"COLOR_0":14,"TEXCOORD_0":15},"material":3}]},{"primitives":[{"mode":4,"attributes":{"POSITION":16,"NORMAL":17,"COLOR_0":18,"TEXCOORD_0":19},"material":4}]}]}