{"asset":{"version":"2.0","generator":"THREE.GLTFExporter"},"scenes":[{"nodes":[3]}],"scene":0,"nodes":[{"matrix":[1,0,0,0,0,1,0,0,0,0,1,0,-108,-69.5,0.30000000000000004,1],"mesh":0},{"matrix":[1,0,0,0,0,1,0,0,0,0,1,0,-108,-69.5,-0.2,1],"mesh":1},{"matrix":[-1,0,-1.2246467991473532e-16,0,0,1,0,0,1.2246467991473532e-16,0,-1,0,108,-69.5,-0.30000000000000004,1],"mesh":2},{"matrix":[0.9259259259259259,0,0,0,0,0.9259259259259259,0,0,0,0,0.9259259259259259,0,0,0,0,1],"children":[0,1,2]}],"bufferViews":[{"buffer":0,"byteOffset":0,"byteLength":5112,"target":34962,"byteStride":12},{"buffer":0,"byteOffset":5112,"byteLength":5112,"target":34962,"byteStride":12},{"buffer":0,"byteOffset":10224,"byteLength":5112,"target":34962,"byteStride":12},{"buffer":0,"byteOffset":15336,"byteLength":3408,"target":34962,"byteStride":8},{"buffer":0,"byteOffset":18744,"byteLength":20592,"target":34962,"byteStride":12},{"buffer":0,"byteOffset":39336,"byteLength":20592,"target":34962,"byteStride":12},{"buffer":0,"byteOffset":59928,"byteLength":20592,"target":34962,"byteStride":12},{"buffer":0,"byteOffset":80520,"byteLength":13728,"target":34962,"byteStride":8},{"buffer":0,"byteOffset":94248,"byteLength":5112,"target":34962,"byteStride":12},{"buffer":0,"byteOffset":99360,"byteLength":5112,"target":34962,"byteStride":12},{"buffer":0,"byteOffset":104472,"byteLength":5112,"target":34962,"byteStride":12},{"buffer":0,"byteOffset":109584,"byteLength":3408,"target":34962,"byteStride":8}],"buffers":[{"byteLength":112992,"uri":"data:application/octet-stream;base64,"}],"accessors":[{"bufferView":0,"componentType":5126,"count":426,"max":[216,139,0],"min":[0,0,0],"type":"VEC3"},{"bufferView":1,"componentType":5126,"count":426,"max":[0,0,1],"min":[0,0,1],"type":"VEC3"},{"bufferView":2,"componentType":5126,"count":426,"max":[1,1,1],"min":[1,1,1],"type":"VEC3"},{"bufferView":3,"componentType":5126,"count":426,"max":[1,1],"min":[0,0],"type":"VEC2"},{"bufferView":4,"componentType":5126,"count":1716,"max":[216,139,0.4000000059604645],"min":[0,0,0],"type":"VEC3"},{"bufferView":5,"componentType":5126,"count":1716,"max":[1,1,1],"min":[-1,-1,-1],"type":"VEC3"},{"bufferView":6,"componentType":5126,"count":1716,"max":[1,1,1],"min":[1,1,1],"type":"VEC3"},{"bufferView":7,"componentType":5126,"count":1716,"max":[1.5535420179367065,1],"min":[0,0],"type":"VEC2"},{"bufferView":8,"componentType":5126,"count":426,"max":[216,139,0],"min":[0,0,0],"type":"VEC3"},{"bufferView":9,"componentType":5126,"count":426,"max":[0,0,1],"min":[0,0,1],"type":"VEC3"},{"bufferView":10,"componentType":5126,"count":426,"max":[1,1,1],"min":[1,1,1],"type":"VEC3"},{"bufferView":11,"componentType":5126,"count":426,"max":[1,1],"min":[0,0],"type":"VEC2"}],"materials":[{"pbrMetallicRoughness":{"metallicFactor":0.5,"roughnessFactor":0.5,"baseColorTexture":{"index":0}},"alphaMode":"MASK"},{"pbrMetallicRoughness":{"metallicFactor":0.5,"roughnessFactor":0.5},"alphaMode":"MASK","doubleSided":true},{"pbrMetallicRoughness":{"metallicFactor":0.5,"roughnessFactor":0.5,"baseColorTexture":{"index":1}},"alphaMode":"MASK"}],"textures":[{"sampler":0,"source":0},{"sampler":1,"source":1}],"samplers":[{"magFilter":9729,"minFilter":9987},{"magFilter":9729,"minFilter":9987}],"images":[{"mimeType":"image/png","uri":"data:image/png;base64,"},{"mimeType":"image/png","uri":"data:image/png;base64,"}],"meshes":[{"primitives":[{"mode":4,"attributes":{"POSITION":0,"NORMAL":1,"COLOR_0":2,"TEXCOORD_0":3},"material":0}]},{"primitives":[{"mode":4,"attributes":{"POSITION":4,"NORMAL":5,"COLOR_0":6,"TEXCOORD_0":7},"material":1}]},{"primitives":[{"mode":4,"attributes":{"POSITION":8,"NORMAL":9,"COLOR_0":10,"TEXCOORD_0":11},"material":2}]}]}